<?xml version="1.0" encoding="UTF-8"?><svg id="Layer_1" xmlns="http://www.w3.org/2000/svg" viewBox="0 0 973.543 479.9922"><path d="M80.9971,339.1465H15.561v-181.9438c0-18.354,2.2568-33.7158,6.7832-46.0845,4.5195-12.3691,10.7041-22.207,18.5532-29.5264,7.8428-7.3125,16.9575-12.6309,27.3315-15.96,10.374-3.3228,21.2778-5.249,32.7178-5.7852h70.623c11.7021.5361,22.6748,2.4624,32.9175,5.7852,10.2368,3.3291,19.2832,8.6475,27.1323,15.96,7.8428,7.3193,14.0273,17.1572,18.5532,29.5264,4.52,12.3687,6.7832,27.7305,6.7832,46.0845v181.9438h-65.436v-179.9492c0-26.5957-11.4399-39.8999-34.314-39.8999h-41.895c-22.8804,0-34.314,13.3042-34.314,39.8999v179.9492Z"/><path d="M390.2217,125.2827c13.2979.2681,26.1963,2.5308,38.7031,6.7827,12.5,4.2583,23.6719,10.4429,33.5156,18.5537,9.8379,8.1172,17.6875,18.0234,23.541,29.7256,5.8477,11.708,8.7783,25.1367,8.7783,40.2988v118.5029h-61.4463v-19.1514c-7.9795,7.9795-17.2939,13.9023-27.9297,17.7549-10.6426,3.8525-22.082,5.7852-34.3145,5.7852-12.7676,0-24.6753-2.6621-35.7104-7.9795-11.041-5.3184-20.5483-12.6992-28.5283-22.1445-7.98-9.4395-14.3018-20.6797-18.9526-33.7158-4.6567-13.0303-6.9824-27.3936-6.9824-43.0918,0-19.4141,3.1235-36.1719,9.3765-50.2739,6.2471-14.0962,14.4951-25.667,24.7383-34.7129,10.2368-9.04,21.9448-15.7607,35.1118-20.1499,13.167-4.3887,26.5332-6.4463,40.0996-6.1841ZM433.3135,237.002c-.2676-9.3076-1.7949-17.5557-4.5879-24.7373-2.7939-7.1826-6.3848-13.167-10.7734-17.9551s-9.377-8.4414-14.9629-10.9727c-5.5859-2.5249-11.3086-3.7905-17.1562-3.7905-5.5859,0-10.9727,1.1348-16.1602,3.3916-5.1865,2.2632-9.7754,5.7856-13.7656,10.5737-3.9893,4.7871-7.25,10.7725-9.7749,17.9541-2.5312,7.1826-3.7905,15.5615-3.7905,25.1377,0,8.7773,1.3965,16.4961,4.1895,23.1416,2.793,6.6523,6.3838,12.3066,10.7725,16.958,4.3896,4.6562,9.4395,8.1172,15.1621,10.374,5.7168,2.2627,11.5029,3.3906,17.3564,3.3906,5.3184,0,10.5742-.9971,15.7607-2.9922,5.1875-1.9951,9.8379-5.1182,13.9648-9.376,4.1211-4.252,7.4443-9.5078,9.9756-15.7607,2.5244-6.2471,3.79-13.6289,3.79-22.1445v-3.1924Z"/><path d="M585.3281,35.5073v303.6392h-61.4453V55.0586l61.4453-19.5513Z"/><path d="M719.3896,125.2827c13.2979.2681,26.1963,2.5308,38.7031,6.7827,12.5,4.2583,23.6719,10.4429,33.5156,18.5537,9.8379,8.1172,17.6875,18.0234,23.541,29.7256,5.8477,11.708,8.7783,25.1367,8.7783,40.2988v118.5029h-61.4463v-19.1514c-7.9795,7.9795-17.2939,13.9023-27.9297,17.7549-10.6426,3.8525-22.082,5.7852-34.3145,5.7852-12.7676,0-24.6758-2.6621-35.71-7.9795-11.041-5.3184-20.5488-12.6992-28.5283-22.1445-7.9805-9.4395-14.3018-20.6797-18.9531-33.7158-4.6572-13.0303-6.9824-27.3936-6.9824-43.0918,0-19.4141,3.123-36.1719,9.377-50.2739,6.2461-14.0962,14.4941-25.667,24.7373-34.7129,10.2373-9.04,21.9453-15.7607,35.1123-20.1499,13.167-4.3887,26.5332-6.4463,40.0996-6.1841ZM762.4814,237.002c-.2676-9.3076-1.7949-17.5557-4.5879-24.7373-2.7939-7.1826-6.3848-13.167-10.7734-17.9551s-9.377-8.4414-14.9629-10.9727c-5.5859-2.5249-11.3086-3.7905-17.1562-3.7905-5.5859,0-10.9727,1.1348-16.1602,3.3916-5.1865,2.2632-9.7754,5.7856-13.7656,10.5737-3.9893,4.7871-7.25,10.7725-9.7754,17.9541-2.5312,7.1826-3.79,15.5615-3.79,25.1377,0,8.7773,1.3965,16.4961,4.1895,23.1416,2.793,6.6523,6.3838,12.3066,10.7725,16.958,4.3896,4.6562,9.4395,8.1172,15.1621,10.374,5.7168,2.2627,11.5029,3.3906,17.3564,3.3906,5.3184,0,10.5742-.9971,15.7607-2.9922,5.1875-1.9951,9.8379-5.1182,13.9648-9.376,4.1211-4.252,7.4443-9.5078,9.9756-15.7607,2.5244-6.2471,3.79-13.6289,3.79-22.1445v-3.1924Z"/><path d="M851.4541,192.7129c0-21.5454,5.3867-38.0352,16.1602-49.4756,10.7725-11.4336,27.8613-17.1567,51.2715-17.1567,14.8936,0,32.0508,2.5312,51.4707,7.5811v53.4658c-14.1025-4.52-25.0059-6.7827-32.7178-6.7827-10.1123,0-16.958,3.6592-20.5488,10.9717-3.5908,7.3193-5.3867,18.8223-5.3867,34.5137v113.3164h-60.249v-146.4336Z"/></svg>